<svg xmlns="http://www.w3.org/2000/svg" viewBox="0 0 100 100" width="100" height="100">
  <defs>
    <linearGradient id="sg" x1="0%" y1="0%" x2="0%" y2="100%">
      <stop offset="0%" style="stop-color:#c0392b"/>
      <stop offset="100%" style="stop-color:#7b1d13"/>
    </linearGradient>
    <linearGradient id="fg" x1="0%" y1="100%" x2="0%" y2="0%">
      <stop offset="0%" style="stop-color:#ffffff;stop-opacity:0.9"/>
      <stop offset="100%" style="stop-color:#ffd580"/>
    </linearGradient>
  </defs>

  <!-- Shield -->
  <path d="M50 6 L12 20 L12 56 C12 80 28 94 50 100 C72 94 88 80 88 56 L88 20 Z"
        fill="url(#sg)"/>
  <!-- Inner border -->
  <path d="M50 12 L17 25 L17 56 C17 78 31 91 50 96 C69 91 83 78 83 56 L83 25 Z"
        fill="none" stroke="rgba(255,255,255,0.15)" stroke-width="1.5"/>
  <!-- Flame -->
  <path d="M50 84
           C38 74 32 60 34 46
           C35 38 40 32 45 27
           C43 35 47 41 50 42
           C48 34 50 25 56 18
           C57 28 53 37 57 43
           C61 37 62 29 60 22
           C68 33 71 46 69 58
           C67 72 59 82 50 84Z"
        fill="url(#fg)"/>
</svg>
